PathFileType	4	(X/Y/Z)	./resultDataOpenSim/trcMotMarkerGrf/sub06/qtm-03-04.trc
DataRate	CameraRate	NumFrames	NumMarkers	Units	OrigDataRate	OrigDataStartFrame	OrigNumFrames
250.000000	250.000000	5	24	m	250.000000	62	490
Frame#	Time	L.Toe.Tip			R.Toe.Tip			L.Ankle.Lat			R.Ankle.Lat			L.Ankle.Med			R.Ankle.Med			L.Heel			R.Heel			L.Knee.Lat			R.Knee.Lat			L.Knee.Med			R.Knee.Med			L.Thigh.Upper			R.Thigh.Upper			L.ASIS			R.ASIS			V.Sacral			L.Acromium			R.Acromium			C7			L.Elbow			R.Elbow			L.Wrist.Lat			R.Wrist.Lat
		X1	Y1	Z1	X2	Y2	Z2	X3	Y3	Z3	X4	Y4	Z4	X5	Y5	Z5	X6	Y6	Z6	X7	Y7	Z7	X8	Y8	Z8	X9	Y9	Z9	X10	Y10	Z10	X11	Y11	Z11	X12	Y12	Z12	X13	Y13	Z13	X14	Y14	Z14	X15	Y15	Z15	X16	Y16	Z16	X17	Y17	Z17	X18	Y18	Z18	X19	Y19	Z19	X20	Y20	Z20	X21	Y21	Z21	X22	Y22	Z22	X23	Y23	Z23	X24	Y24	Z24

62	0.244	-1.3104051	0.083742936	-0.12019664	-0.8099789	0.0356117	0.081795783	-1.3110628	0.21342524	-0.15022092	-0.9468672	0.060865595	0.095328706	-1.2935301	0.21861223	-0.068812412	-0.92096853	0.078653893	0.0094204961	-1.3601378	0.26971462	-0.10414325	-0.99760135	0.038214631	0.031337172	-0.97475353	0.38373906	-0.17044898	-0.86231985	0.43927795	0.12636471	-0.97283006	0.37007555	-0.049857747	-0.89251564	0.42754623	0.00056182254	-1.0161265	0.77706932	-0.16509632	-0.99485691	0.79226684	0.18008454	-0.93633482	0.82474225	-0.12511807	-0.91141558	0.83725562	0.11857449	-1.1078721	0.91479568	0.016813758	-0.96045746	1.314911	-0.17415324	-0.96242835	1.2998957	0.18855705	-1.0349526	1.3510198	0.006152441	-0.99886887	0.99510309	-0.23945681	-1.0658466	0.99982118	0.24871486	-0.80600441	0.8372083	-0.23702684	-0.94763189	0.79115021	0.28768811
63	0.248	-1.2935515	0.084027286	-0.11941277	-0.81012992	0.035617004	0.081974135	-1.2965932	0.21343871	-0.14904317	-0.94707192	0.060863818	0.095434266	-1.279315	0.2189601	-0.067672512	-0.92104764	0.078738264	0.0095545719	-1.3466711	0.26890892	-0.1028931	-0.99764974	0.038251752	0.031376794	-0.96204323	0.38611491	-0.16982429	-0.86136579	0.43914693	0.12678026	-0.95998594	0.3726417	-0.048881655	-0.89060579	0.42785832	0.0008985951	-1.0095828	0.77907166	-0.16455373	-0.98959639	0.7935497	0.18080471	-0.93008852	0.82656796	-0.12465542	-0.90623781	0.83863389	0.11960866	-1.1015674	0.9165866	0.017401977	-0.95477724	1.3167553	-0.17387457	-0.95602765	1.3021275	0.18876687	-1.0288495	1.3527733	0.0064026876	-0.99433102	0.99705975	-0.23841294	-1.0581183	1.0016011	0.24941673	-0.80291162	0.83773965	-0.23702296	-0.93813389	0.79393943	0.28835246
64	0.252	-1.2766573	0.084121595	-0.11852404	-0.81026939	0.035620458	0.082126052	-1.281985	0.21325073	-0.14780579	-0.94726397	0.060863397	0.095525263	-1.265233	0.21906695	-0.066453227	-0.92113163	0.078827344	0.009665323	-1.3330235	0.26783367	-0.10151451	-0.99770753	0.038279142	0.031415767	-0.94930272	0.38862387	-0.16916663	-0.86059054	0.43900426	0.12702104	-0.94735346	0.37534263	-0.047820847	-0.88883928	0.4281459	0.0011731837	-1.0029402	0.78110952	-0.16398844	-0.98452741	0.79482756	0.18138535	-0.92390066	0.82837431	-0.12420474	-0.90075761	0.8400636	0.12070459	-1.0952848	0.91836	0.017976562	-0.94905234	1.3186074	-0.17360264	-0.94962609	1.3043618	0.18895743	-1.0227211	1.3545315	0.0066764542	-0.98991026	0.99907672	-0.23746433	-1.0501837	1.0034523	0.25043717	-0.79987294	0.83829317	-0.2370572	-0.92864152	0.7967642	0.28896857
65	0.256	-1.2596182	0.084027825	-0.11757104	-0.81039472	0.035625582	0.082238324	-1.2673442	0.21286666	-0.14652896	-0.94741769	0.060872008	0.095599189	-1.2509704	0.21893842	-0.065209789	-0.92121816	0.078922651	0.0097520973	-1.319322	0.26655576	-0.1000612	-0.99778294	0.038283917	0.031459514	-0.93653589	0.39124995	-0.16848107	-0.85985782	0.43886716	0.12714592	-0.93476515	0.37813141	-0.046761113	-0.88733796	0.42837798	0.0013845213	-0.99621055	0.7831709	-0.16344176	-0.97992473	0.79604902	0.18163242	-0.91771301	0.83017462	-0.12373704	-0.89542673	0.84148462	0.12174585	-1.0890371	0.92009231	0.018562252	-0.94328417	1.3204591	-0.17333912	-0.94320976	1.3065792	0.1891297	-1.0165694	1.3562915	0.0069765906	-0.98562936	1.0011539	-0.23662987	-1.0422715	1.005325	0.2515006	-0.79688179	0.83885954	-0.23713275	-0.91909823	0.79960304	0.2895227
66	0.26	-1.2422578	0.083785805	-0.11670822	-0.81050693	0.035633108	0.082309038	-1.2527177	0.21228569	-0.14524485	-0.94754161	0.060879442	0.095642879	-1.2362702	0.21859888	-0.064003145	-0.92130507	0.07902422	0.009814083	-1.3056544	0.26506661	-0.09859181	-0.99787803	0.038265004	0.031509222	-0.92380808	0.39398227	-0.16777879	-0.8590041	0.43877132	0.12722678	-0.92199908	0.38097635	-0.045791395	-0.88616754	0.4285474	0.0015230649	-0.9893949	0.78524369	-0.16297401	-0.97574215	0.79714995	0.18149358	-0.91145736	0.83199193	-0.12320731	-0.89041718	0.84288918	0.1226664	-1.0828348	0.92177191	0.019073709	-0.93747601	1.322305	-0.17307988	-0.93676078	1.3087683	0.18927985	-1.0104001	1.3580529	0.0073011606	-0.98146718	1.0032813	-0.23588502	-1.0345042	1.007194	0.2524768	-0.7939317	0.83943504	-0.23724999	-0.90948176	0.80245558	0.29001278
